<?xml version="1.0" encoding="UTF-8" standalone="no"?>
<!-- Created with Inkscape (http://www.inkscape.org/) -->

<svg
   width="96"
   height="96"
   viewBox="0 0 25.399999 25.4"
   version="1.1"
   id="svg5"
   xml:space="preserve"
   inkscape:version="1.2.2 (732a01da63, 2022-12-09)"
   sodipodi:docname="ikona.svg"
   inkscape:export-filename="ikona.png"
   inkscape:export-xdpi="96"
   inkscape:export-ydpi="96"
   xmlns:inkscape="http://www.inkscape.org/namespaces/inkscape"
   xmlns:sodipodi="http://sodipodi.sourceforge.net/DTD/sodipodi-0.dtd"
   xmlns="http://www.w3.org/2000/svg"
   xmlns:svg="http://www.w3.org/2000/svg"><sodipodi:namedview
     id="namedview7"
     pagecolor="#ffffff"
     bordercolor="#000000"
     borderopacity="0.25"
     inkscape:showpageshadow="2"
     inkscape:pageopacity="0.0"
     inkscape:pagecheckerboard="0"
     inkscape:deskcolor="#d1d1d1"
     inkscape:document-units="mm"
     showgrid="false"
     showguides="true"
     inkscape:zoom="5.6568543"
     inkscape:cx="14.672466"
     inkscape:cy="49.320698"
     inkscape:window-width="1920"
     inkscape:window-height="1009"
     inkscape:window-x="1912"
     inkscape:window-y="-8"
     inkscape:window-maximized="1"
     inkscape:current-layer="layer1"><sodipodi:guide
       position="13.553164,17.040104"
       orientation="1,0"
       id="guide856"
       inkscape:locked="false" /></sodipodi:namedview><defs
     id="defs2" /><g
     inkscape:label="Warstwa 1"
     inkscape:groupmode="layer"
     id="layer1"><path
       style="fill:#ffffff;fill-opacity:1;stroke-width:0.148;stroke-linecap:square"
       d="M 16.867187,5.341276 20.141406,9.4753905 23.746354,9.6076822 24.225911,8.4666666 23.20065,8.3839843 21.133593,8.1690103 19.843749,7.8052082 18.967317,7.1437499 18.190104,6.135026 17.528645,5.6058593 17.164843,5.2585937 Z"
       id="path1663" /><path
       style="fill:#ffffff;fill-opacity:1;stroke:none;stroke-width:0.156856;stroke-linecap:square;stroke-dasharray:none;stroke-opacity:1"
       d="m 8.2183466,4.3018811 -1.0394831,3.2375067 4.1751635,1.2854608 2.776599,-0.2776817 1.212904,0.096868 1.27236,0.8976233 1.224795,1.4723618 0.707528,0.587653 2.021506,0.503703 2.187983,0.103316 0.214042,-0.30997 L 24.018172,8.7861001 21.437778,8.5794528 19.594639,8.0628354 18.964405,7.6366261 17.775284,6.112605 16.76453,5.221439 15.361367,5.0922846 13.149603,5.3247628 11.163768,5.1310309 9.2255027,4.5110895 Z"
       id="path2959-0" /><path
       style="fill:#ff0000;fill-opacity:1;stroke:none;stroke-width:0.148;stroke-linecap:square;stroke-dasharray:none;stroke-opacity:1"
       d="m 7.4052326,7.79694 -1.0221598,2.931087 4.1055852,1.163796 2.730325,-0.2514 1.192691,0.0877 1.251155,0.812666 1.204384,1.333007 0.695736,0.532033 1.987817,0.456029 2.151519,0.09354 0.210475,-0.280633 1.028988,-2.818023 -2.53739,-0.187089 -1.812422,-0.467721 -0.619731,-0.38587 L 16.802901,9.4362846 15.808992,8.6294647 14.429213,8.5125342 12.254308,8.7230092 10.30157,8.5476134 8.395604,7.9863475 Z"
       id="path2959" /><path
       style="fill:none;stroke:#000000;stroke-width:0.988277;stroke-linecap:square;stroke-dasharray:none;stroke-opacity:1"
       d="M 2.4942529,20.259297 8.0557975,4.3541802"
       id="path924"
       inkscape:label="path924" /><path
       style="fill:none;fill-opacity:1;stroke:#000000;stroke-width:0.225197;stroke-linecap:square;stroke-dasharray:none;stroke-opacity:1"
       d="m 8.5301288,4.2228199 c 0,0 2.8587092,0.8962433 4.3381622,1.0633319 1.32813,0.1499987 2.751573,-0.514364 4.009242,-0.06193 1.255217,0.4515469 1.828261,2.0499859 3.045045,2.5967041 1.294142,0.5814758 4.215578,0.5874932 4.215578,0.5874932"
       id="path1630"
       sodipodi:nodetypes="caaac" /><path
       style="fill:none;fill-opacity:1;stroke:#000000;stroke-width:0.225197;stroke-linecap:square;stroke-dasharray:none;stroke-opacity:1"
       d="m 21.845617,14.986097 c 0,0 -2.921437,-0.006 -4.215577,-0.587494 -1.216784,-0.546719 -1.789835,-2.145142 -3.045046,-2.596705 -1.257672,-0.452425 -2.681112,0.21193 -4.009241,0.06193 -1.4794548,-0.167085 -4.3381634,-1.06333 -4.3381634,-1.06333 l 2.292519,-6.5776831"
       id="path1630-6"
       sodipodi:nodetypes="caaac" /><path
       style="fill:none;fill-opacity:1;stroke:#000000;stroke-width:0.225197;stroke-linecap:square;stroke-dasharray:none;stroke-opacity:1"
       d="M 21.826448,14.927097 24.202482,8.430875"
       id="path2487" /><path
       style="fill:none;fill-opacity:1;stroke:#000000;stroke-width:0.225197;stroke-linecap:square;stroke-dasharray:none;stroke-opacity:1"
       d="m 7.3254787,7.6523481 c 0,0 2.8587093,0.8962433 4.3381623,1.0633319 1.32813,0.1499987 2.751573,-0.514364 4.009242,-0.06193 1.255217,0.4515469 1.828261,2.049986 3.045045,2.596704 1.294142,0.581476 4.215578,0.587494 4.215578,0.587494"
       id="path1630-7"
       sodipodi:nodetypes="caaac" /><path
       style="fill:#ff0000;fill-opacity:1;stroke:none;stroke-width:0.148;stroke-linecap:square;stroke-dasharray:none;stroke-opacity:1"
       d="M 13.388533,13.236523 23.547916,5.7877603"
       id="path2962" /></g></svg>
